name ./resultDataOpenSim/trcMotMarkerGrf/sub09/grf-03-01.mot
datacolumns 19
datarows 12
range 0.95200000 0.99600000
endheader

                time	     ground_force_vx	     ground_force_vy	     ground_force_vz	     ground_force_px	     ground_force_py	     ground_force_pz	   l_ground_force_vx	   l_ground_force_vy	   l_ground_force_vz	   l_ground_force_px	   l_ground_force_py	   l_ground_force_pz	     ground_torque_x	     ground_torque_y	     ground_torque_z	   l_ground_torque_x	   l_ground_torque_y	   l_ground_torque_z	
          0.95200000	          0.00000000	          0.00000000	          0.00000000	          0.00000000	          0.00000000	          0.00000000	         -9.66934617	        427.41535427	         18.50794267	          0.11861964	         -0.05000000	         -0.02423667	          0.00000000	          0.00000000	          0.00000000	          0.00000000	         -2.60012963	          0.00000000	
          0.95600000	          0.00000000	          0.00000000	          0.00000000	          0.00000000	          0.00000000	          0.00000000	         -7.30286413	        432.88959463	         17.96170279	          0.11862757	         -0.05000000	         -0.02432085	          0.00000000	          0.00000000	          0.00000000	          0.00000000	         -2.93571608	          0.00000000	
          0.96000000	          0.00000000	          0.00000000	          0.00000000	          0.00000000	          0.00000000	          0.00000000	         -4.77652739	        438.75817133	         17.28268529	          0.11849935	         -0.05000000	         -0.02448066	          0.00000000	          0.00000000	          0.00000000	          0.00000000	         -3.30261540	          0.00000000	
          0.96400000	          0.00000000	          0.00000000	          0.00000000	          0.00000000	          0.00000000	          0.00000000	         -2.05041531	        445.16152471	         16.52000266	          0.11835363	         -0.05000000	         -0.02463634	          0.00000000	          0.00000000	          0.00000000	          0.00000000	         -3.69409231	          0.00000000	
          0.96800000	          0.00000000	          0.00000000	          0.00000000	          0.00000000	          0.00000000	          0.00000000	          0.92969127	        452.21156886	         15.73282598	          0.11830279	         -0.05000000	         -0.02472705	          0.00000000	          0.00000000	          0.00000000	          0.00000000	         -4.10082376	          0.00000000	
          0.97200000	          0.00000000	          0.00000000	          0.00000000	          0.00000000	          0.00000000	          0.00000000	          4.21341108	        459.95523556	         14.99209941	          0.11839367	         -0.05000000	         -0.02472620	          0.00000000	          0.00000000	          0.00000000	          0.00000000	         -4.51182048	          0.00000000	
          0.97600000	          0.00000000	          0.00000000	          0.00000000	          0.00000000	          0.00000000	          0.00000000	          7.83040393	        468.38652612	         14.37184815	          0.11860848	         -0.05000000	         -0.02463015	          0.00000000	          0.00000000	          0.00000000	          0.00000000	         -4.91556682	          0.00000000	
          0.98000000	          0.00000000	          0.00000000	          0.00000000	          0.00000000	          0.00000000	          0.00000000	         11.78545165	        477.49346374	         13.93441173	          0.11891643	         -0.05000000	         -0.02444643	          0.00000000	          0.00000000	          0.00000000	          0.00000000	         -5.30114384	          0.00000000	
          0.98400000	          0.00000000	          0.00000000	          0.00000000	          0.00000000	          0.00000000	          0.00000000	         16.04992725	        487.27758514	         13.71934906	          0.11927407	         -0.05000000	         -0.02420075	          0.00000000	          0.00000000	          0.00000000	          0.00000000	         -5.65922564	          0.00000000	
          0.98800000	          0.00000000	          0.00000000	          0.00000000	          0.00000000	          0.00000000	          0.00000000	         20.55836313	        497.73305217	         13.73747211	          0.11960069	         -0.05000000	         -0.02393987	          0.00000000	          0.00000000	          0.00000000	          0.00000000	         -5.98289283	          0.00000000	
          0.99200000	          0.00000000	          0.00000000	          0.00000000	          0.00000000	          0.00000000	          0.00000000	         25.21624050	        508.79881416	         13.97053360	          0.11983709	         -0.05000000	         -0.02369166	          0.00000000	          0.00000000	          0.00000000	          0.00000000	         -6.26812773	          0.00000000	
          0.99600000	          0.00000000	          0.00000000	          0.00000000	          0.00000000	          0.00000000	          0.00000000	         29.91764926	        520.32698918	         14.38473355	          0.12000485	         -0.05000000	         -0.02346763	          0.00000000	          0.00000000	          0.00000000	          0.00000000	         -6.51384529	          0.00000000	
